<svg xmlns="http://www.w3.org/2000/svg" version="1.1" viewBox="-5.0 -10.0 110.0 135.0">
 <path d="m38.574 50.023-15.051-15.047c-1.3633-1.3672-1.3633-3.5859 0-4.9531 1.3672-1.3633 3.5859-1.3633 4.9531 0l17.523 17.527c1.3672 1.3672 1.3672 3.582 0 4.9492l-17.523 17.523c-1.3672 1.3672-3.5859 1.3672-4.9531 0-1.3633-1.3633-1.3633-3.582 0-4.9492z"/>
 <path d="m51.523 67.555c0-1.9336 1.5703-3.5 3.5-3.5h19c1.9336 0 3.5 1.5664 3.5 3.5 0 1.9336-1.5664 3.5-3.5 3.5h-19c-1.9297 0-3.5-1.5664-3.5-3.5z"/>
 <path d="m5 22c0-5.5234 4.4766-10 10-10h70c5.5234 0 10 4.4766 10 10v56c0 5.5234-4.4766 10-10 10h-70c-5.5234 0-10-4.4766-10-10zm10-3h70c1.6562 0 3 1.3438 3 3v56c0 1.6562-1.3438 3-3 3h-70c-1.6562 0-3-1.3438-3-3v-56c0-1.6562 1.3438-3 3-3z" fill-rule="evenodd"/>
</svg>
